<?xml version="1.0" encoding="iso-8859-1"?>
<!-- Generator: Adobe Illustrator 19.0.0, SVG Export Plug-In . SVG Version: 6.00 Build 0)  -->
<svg xmlns="http://www.w3.org/2000/svg" xmlns:xlink="http://www.w3.org/1999/xlink" version="1.1" id="Capa_1" x="0px" y="0px" viewBox="0 0 512 512" style="enable-background:new 0 0 512 512;" xml:space="preserve" width="512px" height="512px">
<g>
	<g>
		<path d="M330.667,405.333h-32V106.667h32c4.188,0,7.979-2.448,9.708-6.26s1.083-8.281-1.688-11.427L264.021,3.646    c-2.019-2.321-5.015-3.644-8.012-3.646c-3.003-0.002-6.007,1.321-8.03,3.646l-74.667,85.333    c-2.771,3.146-3.417,7.615-1.688,11.427s5.521,6.26,9.708,6.26h32v298.667h-32c-4.188,0-7.979,2.448-9.708,6.26    s-1.083,8.281,1.688,11.427l74.667,85.333C250,510.677,252.917,512,256,512s6-1.323,8.021-3.646l74.667-85.333    c2.771-3.146,3.417-7.615,1.688-11.427S334.854,405.333,330.667,405.333z" fill="#FFFFFF"/>
	</g>
</g>
<g>
</g>
<g>
</g>
<g>
</g>
<g>
</g>
<g>
</g>
<g>
</g>
<g>
</g>
<g>
</g>
<g>
</g>
<g>
</g>
<g>
</g>
<g>
</g>
<g>
</g>
<g>
</g>
<g>
</g>
</svg>
